# xmcd CD database file
#
# Track frame offsets:
#	150
#	22185
#	42807
#	65720
#	83287
#	111822
#	130000
#	154505
#	177027
#	195357
#
# Disc length: 2892 seconds
#
# Revision: 0
# Processed by: cddbd v1.5.1PL2 Copyright (c) Steve Scherf et al.
# Submitted via: CDex 1.51
#
DISCID=710b4a0a
DTITLE=本多俊之 - reLAX
DYEAR=1991
DGENRE=Jazz
TTITLE0=Updraft
TTITLE1=In the Middle of Reef 微風のまなざし
TTITLE2=Beside You 君に包まれて
TTITLE3=My Happiness
TTITLE4=Silhouette
TTITLE5=Carnival in Sunshower
TTITLE6=Blue Skyscraper 蒼い摩天楼
TTITLE7=Taking from the Rain 天気雨
TTITLE8=Party Mix
TTITLE9=Vingt-Cinq ans ヴァンサンカン「
EXTD=YEAR: 1991
EXTT0=
EXTT1=
EXTT2=
EXTT3=
EXTT4=
EXTT5=
EXTT6=
EXTT7=
EXTT8=
EXTT9=
PLAYORDER=
